<mxfile host="app.diagrams.net" modified="2021-02-23T08:27:08.378Z" agent="5.0 (Windows NT 10.0; WOW64) AppleWebKit/537.36 (KHTML, like Gecko) Chrome/88.0.4324.182 Safari/537.36" etag="WnHT3lzuWwNgtQFKd6QL" version="14.4.2" type="github">
  <diagram id="prtHgNgQTEPvFCAcTncT" name="Page-1">
    <mxGraphModel dx="868" dy="450" grid="1" gridSize="10" guides="1" tooltips="1" connect="1" arrows="1" fold="1" page="1" pageScale="1" pageWidth="827" pageHeight="1169" math="0" shadow="0">
      <root>
        <mxCell id="0" />
        <mxCell id="1" parent="0" />
        <mxCell id="B2XO-9viWH7zZC_KhTM4-3" value="&lt;b style=&quot;line-height: 150%&quot;&gt;对象实例&lt;/b&gt;" style="rounded=0;whiteSpace=wrap;html=1;align=center;verticalAlign=top;fillColor=#dae8fc;strokeColor=#6c8ebf;" parent="1" vertex="1">
          <mxGeometry x="70" y="230" width="170" height="200" as="geometry" />
        </mxCell>
        <mxCell id="B2XO-9viWH7zZC_KhTM4-13" style="edgeStyle=orthogonalEdgeStyle;rounded=0;orthogonalLoop=1;jettySize=auto;html=1;entryX=-0.012;entryY=0.29;entryDx=0;entryDy=0;entryPerimeter=0;" parent="1" source="B2XO-9viWH7zZC_KhTM4-4" target="B2XO-9viWH7zZC_KhTM4-9" edge="1">
          <mxGeometry relative="1" as="geometry" />
        </mxCell>
        <mxCell id="B2XO-9viWH7zZC_KhTM4-4" value="对象头" style="rounded=0;whiteSpace=wrap;html=1;align=center;fillColor=#fff2cc;strokeColor=#d6b656;" parent="1" vertex="1">
          <mxGeometry x="95" y="260" width="115" height="40" as="geometry" />
        </mxCell>
        <mxCell id="B2XO-9viWH7zZC_KhTM4-28" style="edgeStyle=orthogonalEdgeStyle;rounded=0;orthogonalLoop=1;jettySize=auto;html=1;entryX=0;entryY=0.5;entryDx=0;entryDy=0;" parent="1" source="B2XO-9viWH7zZC_KhTM4-5" target="B2XO-9viWH7zZC_KhTM4-26" edge="1">
          <mxGeometry relative="1" as="geometry" />
        </mxCell>
        <mxCell id="B2XO-9viWH7zZC_KhTM4-5" value="对齐填充" style="rounded=0;whiteSpace=wrap;html=1;align=center;fillColor=#e1d5e7;strokeColor=#9673a6;dashed=1;" parent="1" vertex="1">
          <mxGeometry x="95" y="370" width="115" height="40" as="geometry" />
        </mxCell>
        <mxCell id="B2XO-9viWH7zZC_KhTM4-25" style="edgeStyle=orthogonalEdgeStyle;rounded=0;orthogonalLoop=1;jettySize=auto;html=1;entryX=0.006;entryY=0.358;entryDx=0;entryDy=0;entryPerimeter=0;" parent="1" source="B2XO-9viWH7zZC_KhTM4-6" target="B2XO-9viWH7zZC_KhTM4-21" edge="1">
          <mxGeometry relative="1" as="geometry" />
        </mxCell>
        <mxCell id="B2XO-9viWH7zZC_KhTM4-6" value="实例数据" style="rounded=0;whiteSpace=wrap;html=1;align=center;fillColor=#f8cecc;strokeColor=#b85450;" parent="1" vertex="1">
          <mxGeometry x="95" y="310" width="115" height="40" as="geometry" />
        </mxCell>
        <mxCell id="B2XO-9viWH7zZC_KhTM4-8" value="&lt;b style=&quot;line-height: 130%&quot;&gt;&lt;font style=&quot;font-size: 14px&quot;&gt;HotSpot虚拟机的对象内存布局&lt;/font&gt;&lt;/b&gt;" style="rounded=0;whiteSpace=wrap;html=1;align=center;fillColor=#dae8fc;strokeColor=#6c8ebf;" parent="1" vertex="1">
          <mxGeometry x="30" y="20" width="220" height="40" as="geometry" />
        </mxCell>
        <mxCell id="B2XO-9viWH7zZC_KhTM4-9" value="&lt;b&gt;&lt;font style=&quot;font-size: 14px&quot;&gt;对象头&lt;/font&gt;&lt;/b&gt;" style="rounded=0;whiteSpace=wrap;html=1;align=center;horizontal=1;verticalAlign=top;fillColor=#fff2cc;strokeColor=#d6b656;" parent="1" vertex="1">
          <mxGeometry x="380" y="60" width="170" height="210" as="geometry" />
        </mxCell>
        <mxCell id="B2XO-9viWH7zZC_KhTM4-10" value="运行时数据&lt;br&gt;(Mark Word)" style="rounded=0;whiteSpace=wrap;html=1;align=center;" parent="1" vertex="1">
          <mxGeometry x="414" y="100" width="106" height="40" as="geometry" />
        </mxCell>
        <mxCell id="B2XO-9viWH7zZC_KhTM4-14" value="类型指针&lt;br&gt;(Klass Point)" style="rounded=0;whiteSpace=wrap;html=1;align=center;" parent="1" vertex="1">
          <mxGeometry x="414" y="150" width="106" height="40" as="geometry" />
        </mxCell>
        <mxCell id="B2XO-9viWH7zZC_KhTM4-15" value="数组长度&lt;br&gt;（仅数组对象）" style="rounded=0;whiteSpace=wrap;html=1;align=center;dashed=1;" parent="1" vertex="1">
          <mxGeometry x="414" y="204" width="106" height="40" as="geometry" />
        </mxCell>
        <mxCell id="B2XO-9viWH7zZC_KhTM4-21" value="实例数据" style="rounded=0;whiteSpace=wrap;html=1;align=center;verticalAlign=top;fillColor=#f8cecc;strokeColor=#b85450;" parent="1" vertex="1">
          <mxGeometry x="380" y="287" width="170" height="120" as="geometry" />
        </mxCell>
        <mxCell id="B2XO-9viWH7zZC_KhTM4-22" value="字段内容&lt;br&gt;（含父类）" style="rounded=0;whiteSpace=wrap;html=1;align=center;" parent="1" vertex="1">
          <mxGeometry x="414" y="317" width="106" height="40" as="geometry" />
        </mxCell>
        <mxCell id="B2XO-9viWH7zZC_KhTM4-26" value="对齐填充" style="rounded=0;whiteSpace=wrap;html=1;align=center;verticalAlign=top;fillColor=#e1d5e7;strokeColor=#9673a6;" parent="1" vertex="1">
          <mxGeometry x="380" y="430" width="170" height="110" as="geometry" />
        </mxCell>
        <mxCell id="B2XO-9viWH7zZC_KhTM4-27" value="无意义，仅为补齐为8字节整数倍" style="rounded=0;whiteSpace=wrap;html=1;align=center;" parent="1" vertex="1">
          <mxGeometry x="414" y="470" width="106" height="40" as="geometry" />
        </mxCell>
      </root>
    </mxGraphModel>
  </diagram>
</mxfile>
